<?xml version="1.0" encoding="UTF-8" standalone="no"?>
<svg
   sodipodi:docname="celestial_navigation_pi_toggled.svg"
   inkscape:version="1.1.1 (3bf5ae0d25, 2021-09-20)"
   id="svg8"
   version="1.1"
   viewBox="0 0 3.2060445 3.1459199"
   height="3.14592mm"
   width="3.2060444mm"
   xmlns:inkscape="http://www.inkscape.org/namespaces/inkscape"
   xmlns:sodipodi="http://sodipodi.sourceforge.net/DTD/sodipodi-0.dtd"
   xmlns="http://www.w3.org/2000/svg"
   xmlns:svg="http://www.w3.org/2000/svg"
   xmlns:rdf="http://www.w3.org/1999/02/22-rdf-syntax-ns#"
   xmlns:cc="http://creativecommons.org/ns#"
   xmlns:dc="http://purl.org/dc/elements/1.1/">
  <defs
     id="defs2" />
  <sodipodi:namedview
     inkscape:window-maximized="0"
     inkscape:window-y="10"
     inkscape:window-x="32"
     inkscape:window-height="1306"
     inkscape:window-width="2136"
     showgrid="false"
     inkscape:document-rotation="0"
     inkscape:current-layer="layer2"
     inkscape:document-units="mm"
     inkscape:cy="18.526786"
     inkscape:cx="24.419643"
     inkscape:zoom="22.4"
     inkscape:pageshadow="2"
     inkscape:pageopacity="0.0"
     borderopacity="1.0"
     bordercolor="#666666"
     pagecolor="#ffffff"
     id="base"
     inkscape:pagecheckerboard="0" />
  <metadata
     id="metadata5">
    <rdf:RDF>
      <cc:Work
         rdf:about="">
        <dc:format>image/svg+xml</dc:format>
        <dc:type
           rdf:resource="http://purl.org/dc/dcmitype/StillImage" />
        <dc:title />
      </cc:Work>
    </rdf:RDF>
  </metadata>
  <g
     inkscape:label="Layer 2"
     id="layer2"
     inkscape:groupmode="layer"
     style="display:inline"
     sodipodi:insensitive="true"
     transform="translate(0.01175205,-0.00150003)">
    <rect
       style="display:inline;fill:#666666;fill-rule:evenodd;stroke-width:0.0891763"
       id="rect38"
       width="3.2060444"
       height="3.14592"
       x="-0.011752053"
       y="0.0015000339" />
    <path
       d="M 0.72940289,0.6788235 A 0.18976136,0.16036171 0 0 1 0.54390932,0.51843133 0.18976136,0.16036171 0 0 1 0.72957093,0.35817808 0.18976136,0.16036171 0 0 1 0.92325121,0.51150392 0.18976136,0.16036171 0 0 1 0.74612988,0.67851804"
       sodipodi:arc-type="arc"
       sodipodi:open="true"
       sodipodi:end="1.5050917"
       sodipodi:start="1.5932884"
       sodipodi:ry="0.16036171"
       sodipodi:rx="0.18976136"
       sodipodi:cy="0.51850235"
       sodipodi:cx="0.73367065"
       sodipodi:type="arc"
       id="path2404"
       style="display:inline;opacity:0.997;fill:#ffffff;stroke-width:0.264999" />
    <path
       d="M 1.4733666,4.5485841 A 1.3876301,1.3630747 0 0 1 0.11694469,3.1852505 1.3876301,1.3630747 0 0 1 1.4745955,1.8230977 1.3876301,1.3630747 0 0 1 2.8908827,3.1263675 1.3876301,1.3630747 0 0 1 1.5956828,4.5459877"
       sodipodi:arc-type="arc"
       sodipodi:open="true"
       sodipodi:end="1.5050917"
       sodipodi:start="1.5932884"
       sodipodi:ry="1.3630747"
       sodipodi:rx="1.3876301"
       sodipodi:cy="3.1858542"
       sodipodi:cx="1.5045747"
       sodipodi:type="arc"
       id="path2408"
       style="display:inline;opacity:0.997;fill:#b3b3b3;stroke-width:0.264999" />
    <path
       d="M 2.1807628,2.1342653 A 0.21348152,0.21916102 0 0 1 1.9720825,1.9150626 0.21348152,0.21916102 0 0 1 2.1809519,1.6960498 0.21348152,0.21916102 0 0 1 2.3988422,1.9055952 0.21348152,0.21916102 0 0 1 2.1995807,2.1338478"
       sodipodi:arc-type="arc"
       sodipodi:open="true"
       sodipodi:end="1.5050917"
       sodipodi:start="1.5932884"
       sodipodi:ry="0.21916102"
       sodipodi:rx="0.21348152"
       sodipodi:cy="1.9151597"
       sodipodi:cx="2.185564"
       sodipodi:type="arc"
       id="path2413"
       style="display:inline;opacity:0.997;fill:#ffffff;stroke-width:0.264999" />
    <path
       d="m 2.1855644,1.9151602 a 0.05031808,0.03401786 0 0 1 -0.049186,-0.034024 0.05031808,0.03401786 0 0 1 0.049231,-0.033995 0.05031808,0.03401786 0 0 1 0.051357,0.032525 0.05031808,0.03401786 0 0 1 -0.046966,0.035429"
       sodipodi:arc-type="arc"
       sodipodi:open="true"
       sodipodi:end="1.5050917"
       sodipodi:start="1.5932884"
       sodipodi:ry="0.034017857"
       sodipodi:rx="0.050318077"
       sodipodi:cy="1.881151"
       sodipodi:cx="2.1866961"
       sodipodi:type="arc"
       id="path2419"
       style="display:inline;opacity:0.997;fill:#ffffff;stroke-width:0.264999" />
    <rect
       style="display:inline;fill:#ffffff;stroke-width:0.0891763"
       id="rect107"
       width="3.1880403"
       height="1.4362597"
       x="-0.011752053"
       y="3.1474216" />
  </g>
</svg>
