<?xml version="1.0" encoding="UTF-8" standalone="no"?>
<svg
   sodipodi:docname="celestial_navigation.svg"
   inkscape:version="1.1.1 (3bf5ae0d25, 2021-09-20)"
   id="svg8"
   version="1.1"
   viewBox="0 0 3.2060445 3.1459199"
   height="3.14592mm"
   width="3.2060444mm"
   xmlns:inkscape="http://www.inkscape.org/namespaces/inkscape"
   xmlns:sodipodi="http://sodipodi.sourceforge.net/DTD/sodipodi-0.dtd"
   xmlns="http://www.w3.org/2000/svg"
   xmlns:svg="http://www.w3.org/2000/svg"
   xmlns:rdf="http://www.w3.org/1999/02/22-rdf-syntax-ns#"
   xmlns:cc="http://creativecommons.org/ns#"
   xmlns:dc="http://purl.org/dc/elements/1.1/">
  <defs
     id="defs2" />
  <sodipodi:namedview
     inkscape:window-maximized="0"
     inkscape:window-y="0"
     inkscape:window-x="0"
     inkscape:window-height="1156"
     inkscape:window-width="1904"
     showgrid="false"
     inkscape:document-rotation="0"
     inkscape:current-layer="layer2"
     inkscape:document-units="mm"
     inkscape:cy="9.1964286"
     inkscape:cx="10.725446"
     inkscape:zoom="44.8"
     inkscape:pageshadow="2"
     inkscape:pageopacity="0.0"
     borderopacity="1.0"
     bordercolor="#666666"
     pagecolor="#ffffff"
     id="base"
     inkscape:pagecheckerboard="0" />
  <metadata
     id="metadata5">
    <rdf:RDF>
      <cc:Work
         rdf:about="">
        <dc:format>image/svg+xml</dc:format>
        <dc:type
           rdf:resource="http://purl.org/dc/dcmitype/StillImage" />
      </cc:Work>
    </rdf:RDF>
  </metadata>
  <g
     inkscape:label="Layer 2"
     id="layer2"
     inkscape:groupmode="layer"
     style="display:inline"
     sodipodi:insensitive="true"
     transform="translate(0.01175205,-0.00150003)">
    <rect
       style="display:inline;fill:#333333;fill-rule:evenodd;stroke-width:0.0891763"
       id="rect38"
       width="3.2060444"
       height="3.14592"
       x="-0.011752053"
       y="0.0015000339" />
    <path
       d="M 0.82754478,0.90324687 A 0.29016128,0.27258757 0 0 1 0.54390931,0.63060752 0.29016128,0.27258757 0 0 1 0.82780175,0.3582043 0.29016128,0.27258757 0 0 1 1.1239554,0.61883209 0.29016128,0.27258757 0 0 1 0.85312179,0.90272763"
       sodipodi:arc-type="arc"
       sodipodi:open="true"
       sodipodi:end="1.5050917"
       sodipodi:start="1.5932884"
       sodipodi:ry="0.27258757"
       sodipodi:rx="0.29016128"
       sodipodi:cy="0.63072824"
       sodipodi:cx="0.83407056"
       sodipodi:type="arc"
       id="path2404"
       style="display:inline;opacity:0.997;fill:#b3b3b3;stroke-width:0.264999" />
    <path
       d="M 1.4733666,4.5485841 A 1.3876301,1.3630747 0 0 1 0.11694469,3.1852505 1.3876301,1.3630747 0 0 1 1.4745955,1.8230977 1.3876301,1.3630747 0 0 1 2.8908827,3.1263675 1.3876301,1.3630747 0 0 1 1.5956828,4.5459877"
       sodipodi:arc-type="arc"
       sodipodi:open="true"
       sodipodi:end="1.5050917"
       sodipodi:start="1.5932884"
       sodipodi:ry="1.3630747"
       sodipodi:rx="1.3876301"
       sodipodi:cy="3.1858542"
       sodipodi:cx="1.5045747"
       sodipodi:type="arc"
       id="path2408"
       style="display:inline;opacity:0.997;fill:#818181;stroke-width:0.264999;fill-opacity:1" />
    <path
       d="M 2.1817282,2.1593641 A 0.272728,0.26124516 0 0 1 1.915134,1.8980693 0.272728,0.26124516 0 0 1 2.1819697,1.6370008 0.272728,0.26124516 0 0 1 2.4603301,1.8867839 0.272728,0.26124516 0 0 1 2.2057685,2.1588665"
       sodipodi:arc-type="arc"
       sodipodi:open="true"
       sodipodi:end="1.5050917"
       sodipodi:start="1.5932884"
       sodipodi:ry="0.26124516"
       sodipodi:rx="0.272728"
       sodipodi:cy="1.898185"
       sodipodi:cx="2.1878619"
       sodipodi:type="arc"
       id="path2413"
       style="display:inline;opacity:0.997;fill:#b2b2b2;fill-opacity:1;stroke-width:0.264999" />
    <path
       d="M 2.1655687,2.1166256 A 0.1290956,0.09717378 0 0 1 2.0393765,2.0194334 0.1290956,0.09717378 0 0 1 2.165683,1.9223253 0.1290956,0.09717378 0 0 1 2.2974447,2.0152356 0.1290956,0.09717378 0 0 1 2.1769481,2.1164405"
       sodipodi:arc-type="arc"
       sodipodi:open="true"
       sodipodi:end="1.5050917"
       sodipodi:start="1.5932884"
       sodipodi:ry="0.09717378"
       sodipodi:rx="0.1290956"
       sodipodi:cy="2.0194764"
       sodipodi:cx="2.1684721"
       sodipodi:type="arc"
       id="path2419"
       style="display:inline;opacity:0.997;fill:#797979;fill-opacity:1;stroke-width:0.264999" />
    <rect
       style="display:inline;fill:#ffffff;stroke-width:0.0891763"
       id="rect107"
       width="3.1880403"
       height="1.4362597"
       x="-0.011752053"
       y="3.1474216" />
  </g>
</svg>
